<?xml version="1.0" standalone="no"?>
<!DOCTYPE svg PUBLIC "-//W3C//DTD SVG 20010904//EN"
 "http://www.w3.org/TR/2001/REC-SVG-20010904/DTD/svg10.dtd">
<svg version="1.0" xmlns="http://www.w3.org/2000/svg"
 width="700.000000pt" height="700.000000pt" viewBox="0 0 700.000000 700.000000"
 preserveAspectRatio="xMidYMid meet">
<metadata>
Created by potrace 1.11, written by Peter Selinger 2001-2013
</metadata>
<g transform="translate(0.000000,700.000000) scale(0.100000,-0.100000)"
fill="#000000" stroke="none">
<path d="M4625 5833 c-164 -10 -330 -51 -458 -113 -98 -48 -102 -50 -192 -117
-242 -180 -400 -432 -455 -723 -12 -63 -17 -137 -25 -340 -3 -80 -7 -160 -10
-178 -19 -146 -24 -169 -46 -252 -40 -144 -129 -300 -212 -370 -16 -14 -41
-35 -55 -47 -49 -42 -221 -120 -307 -139 -125 -29 -235 -42 -390 -49 -71 -3
-168 -8 -215 -10 -465 -21 -882 -342 -1034 -795 -42 -126 -57 -226 -57 -375 0
-102 2 -125 16 -195 3 -14 8 -38 11 -55 10 -60 56 -185 99 -270 59 -115 122
-203 214 -295 182 -183 393 -287 676 -335 36 -6 252 -7 280 -1 11 2 40 7 65
10 126 17 302 85 425 163 266 170 450 432 515 733 20 88 26 162 35 390 17 434
116 685 330 841 113 82 268 138 455 165 14 2 41 6 60 8 19 3 100 8 180 11 224
9 290 13 350 25 30 6 65 13 77 16 51 10 173 59 254 101 155 81 291 199 393
338 56 77 62 87 109 178 48 94 93 235 103 320 2 23 7 48 10 56 6 19 6 238 -1
271 -3 14 -8 45 -11 70 -8 66 -50 200 -90 287 -52 114 -136 234 -233 332 -199
201 -454 319 -726 337 -44 3 -84 6 -90 7 -5 1 -28 1 -50 0z"/>
</g>
</svg>
