<svg xmlns="http://www.w3.org/2000/svg" viewBox="0 0 648 192">
	<path style="fill: #ffffff" d="M160,64a32.004,32.004,0,0,1-32,32c-24,0-32,8-32,32A32,32,0,1,1,64,96c24,0,32-8,32-32a32,32,0,0,1,64,0Zm99.0107,14.1479c0-14.1445-9.3906-22.144-27.94-22.144H212.0566L199.42,136H214.376l4.7529-29.68h5.7969C246.0264,106.32,258.8955,95.77,259.0107,78.1479Zm-14.84,1.5069c0,9.2749-5.9121,14.7241-17.97,14.7241h-5.2168l4.0576-26.4336h5.333C239.998,67.9453,244.2871,72.2349,244.1709,79.6548Zm47.7656,47.418.58,8.9272h12.4053V121.5078l6.1445-38.4907a52.3108,52.3108,0,0,0-19.0137-3.71c-17.1582,0-33.042,14.0283-33.042,38.7227,0,12.29,6.1446,19.1294,15.3038,19.1294C280.9229,137.1592,286.8359,132.522,291.9365,127.0728Zm.3477-10.4341c-4.753,5.2173-9.043,8.6953-13.1006,8.6953-4.1738,0-6.4922-3.5943-6.4922-9.7388,0-15.1875,8.6953-25.5058,17.8545-25.5058a17.3668,17.3668,0,0,1,5.7969.9272Zm77.9111-36.6358h-13.333l-17.3906,38.7227-5.7969-39.5342-13.9121,1.9707,10.2021,54.1421-2.55,4.7534c-2.3193,3.8262-5.5654,5.7969-9.1591,5.7969a22.6989,22.6989,0,0,1-6.0293-.6953v11.3613a21.0116,21.0116,0,0,0,4.9853.58c11.13,0,17.043-4.0581,23.5352-17.3906ZM444.51,56.0039H430.7129l-8,51.36-24.2305-51.36H383.99L371.3535,136H385.15l8.9267-56.4609L420.7422,136h11.13Zm36.2871,71.0689.58,8.9272h12.4052V121.5078l6.1446-38.4907a52.3108,52.3108,0,0,0-19.0137-3.71c-17.1582,0-33.042,14.0283-33.042,38.7227,0,12.29,6.1445,19.1294,15.3037,19.1294C469.7832,137.1592,475.6963,132.522,480.7969,127.0728Zm.3476-10.4341c-4.7529,5.2173-9.0429,8.6953-13.1006,8.6953-4.1738,0-6.4921-3.5943-6.4921-9.7388,0-15.1875,8.6953-25.5058,17.8544-25.5058a17.3664,17.3664,0,0,1,5.7969.9272Zm76.75-25.39c0-7.6518-4.1738-12.4052-12.4052-12.4052-7.0723,0-14.0284,5.5649-19.9414,11.8256l-.8116-10.666h-12.289V93.5674L505.7236,136h13.5645l5.333-34.5488c5.333-6.4927,11.0137-10.6665,14.376-10.6665,3.4775,0,4.7529,1.9712,4.7529,5.5649a30.5886,30.5886,0,0,1-.2314,3.13L537.6055,136H551.17l6.377-40.1138A30.153,30.153,0,0,0,557.8945,91.2485Zm58.2,11.8257c0-15.0718-8.58-24.2309-22.26-24.2309-16.9268,0-28.2891,15.4194-28.2891,34.0854,0,14.9556,8.4639,24.23,22.1445,24.23C604.7324,137.1592,616.0947,121.74,616.0947,103.0742Zm-13.5644,0c0,11.4776-4.9854,23.419-13.9131,23.419-5.5645,0-9.5068-3.9419-9.5068-13.5645,0-11.4775,4.9853-23.4189,13.913-23.4189C598.4717,89.51,602.53,93.3354,602.53,103.0742Z"/>
</svg>
